<?xml version="1.0" encoding="UTF-8"?>
<svg xmlns="http://www.w3.org/2000/svg" xmlns:xlink="http://www.w3.org/1999/xlink" width="24px" height="24px" viewBox="0 0 24 24" version="1.1">
<g id="surface1">
<path style=" stroke:none;fill-rule:nonzero;fill:#b6b6b6;fill-opacity:1;" d="M 12.089844 21.808594 C 6.386719 21.808594 1.746094 17.171875 1.746094 11.464844 C 1.746094 7.589844 3.886719 4.070312 7.335938 2.285156 C 7.617188 2.136719 7.960938 2.164062 8.214844 2.351562 C 8.46875 2.542969 8.589844 2.863281 8.53125 3.175781 C 8.421875 3.726562 8.367188 4.285156 8.367188 4.84375 C 8.367188 9.636719 12.265625 13.535156 17.054688 13.535156 C 18.457031 13.535156 19.796875 13.207031 21.046875 12.558594 C 21.328125 12.410156 21.667969 12.4375 21.925781 12.628906 C 22.179688 12.820312 22.300781 13.140625 22.242188 13.449219 C 21.296875 18.292969 17.027344 21.808594 12.089844 21.808594 Z M 6.710938 4.644531 C 4.617188 6.285156 3.394531 8.800781 3.398438 11.464844 C 3.398438 16.257812 7.296875 20.152344 12.089844 20.152344 C 15.679688 20.152344 18.84375 17.945312 20.148438 14.714844 C 19.152344 15.03125 18.117188 15.1875 17.054688 15.1875 C 11.351562 15.1875 6.710938 10.546875 6.710938 4.84375 C 6.710938 4.777344 6.710938 4.710938 6.710938 4.644531 Z M 6.710938 4.644531 "/>
</g>
</svg>
